<svg xmlns="http://www.w3.org/2000/svg"><symbol id="sprite-callout-idea" viewBox="0 0 47 47"><title>callout-idea</title><path d="M23.5 11.449c-6.385 0-11.563 4.959-11.563 11.077 0 7.265 5.045 9.117 5.045 13.344 0 1.045.799 2.017 1.999 2.731-.251.209-.391.438-.391.678 0 .322.253.623.688.881-.408.253-.645.544-.645.855 0 .314.242.608.659.863-.426.256-.674.555-.674.872 0 .388.366.743.978 1.032-.237.215-.373.453-.373.703 0 .74 1.153 1.369 2.774 1.621.285.528.863.894 1.537.894.673 0 1.25-.363 1.535-.889 1.637-.248 2.803-.881 2.803-1.623 0-.247-.131-.482-.363-.694.625-.291.998-.651.998-1.042 0-.314-.241-.609-.659-.863.425-.257.674-.554.674-.871 0-.322-.254-.623-.688-.882.41-.252.646-.544.646-.855 0-.249-.151-.484-.421-.698 1.181-.713 1.966-1.675 1.966-2.711 0-4.229 5.039-6.08 5.039-13.344-.001-6.12-5.178-11.079-11.564-11.079zm6.038 17.932c-1.152 1.692-2.455 3.604-2.535 6.232-.396.441-1.809 1.158-3.499 1.158-1.691 0-3.105-.717-3.5-1.16-.08-2.629-1.385-4.541-2.539-6.232-1.287-1.886-2.502-3.667-2.502-6.854 0-4.439 3.83-8.051 8.537-8.051 4.708 0 8.538 3.612 8.538 8.051 0 3.188-1.215 4.97-2.5 6.856zM23.5 7.564c.832 0 1.513-.9 1.513-2V2c0-1.1-.681-2-1.513-2s-1.513.9-1.513 2v3.564c0 1.101.681 2 1.513 2zm-7.753 2.078c.721-.416.859-1.536.31-2.488l-1.781-3.087c-.55-.953-1.59-1.392-2.311-.976-.721.416-.86 1.536-.311 2.488l1.783 3.087c.55.953 1.589 1.392 2.31.976zm-6.652 3.365L6.01 11.225c-.953-.55-2.073-.411-2.489.31-.416.721.022 1.76.976 2.31l3.086 1.782c.953.55 2.073.411 2.488-.31.415-.721-.023-1.76-.976-2.31zm33.409 19.288l-3.086-1.781c-.953-.551-2.073-.412-2.488.31-.416.721.021 1.76.977 2.31l3.084 1.782c.953.55 2.073.411 2.489-.31.416-.722-.022-1.761-.976-2.311zM7.994 23.07c0-.833-.9-1.513-2-1.513H2.43c-1.1 0-2 .681-2 1.513 0 .832.9 1.513 2 1.513h3.564c1.1 0 2-.681 2-1.513zm36.576-1.513h-3.563c-1.101 0-2 .681-2 1.513 0 .832.899 1.513 2 1.513h3.563c1.101 0 2-.681 2-1.513 0-.832-.9-1.513-2-1.513zM7.582 30.514l-3.086 1.781c-.953.55-1.392 1.589-.976 2.311.416.721 1.536.859 2.489.31l3.085-1.782c.953-.55 1.392-1.589.976-2.31-.415-.72-1.535-.861-2.488-.31zm31.836-14.887l3.086-1.782c.953-.55 1.392-1.589.976-2.31-.416-.721-1.536-.86-2.489-.31l-3.085 1.782c-.952.55-1.392 1.589-.976 2.31.415.721 1.535.86 2.488.31zM35.036 3.09c-.722-.416-1.762.023-2.312.976l-1.781 3.087c-.55.953-.411 2.072.31 2.488.722.416 1.761-.023 2.311-.976l1.783-3.087c.549-.952.409-2.072-.311-2.488z"/></symbol><symbol fill="none" id="sprite-callout-note" viewBox="0 0 24 24"><title>callout-note</title><path d="M6 6a1 1 0 011-1h10a1 1 0 110 2H7a1 1 0 01-1-1zm0 4a1 1 0 011-1h10a1 1 0 110 2H7a1 1 0 01-1-1zm1 3a1 1 0 100 2h10a1 1 0 100-2H7zm-1 5a1 1 0 011-1h4a1 1 0 110 2H7a1 1 0 01-1-1z" fill="currentColor"/><path fill-rule="evenodd" clip-rule="evenodd" d="M2 4a3 3 0 013-3h14a3 3 0 013 3v16a3 3 0 01-3 3H5a3 3 0 01-3-3V4zm3-1h14a1 1 0 011 1v16a1 1 0 01-1 1H5a1 1 0 01-1-1V4a1 1 0 011-1z" fill="currentColor"/></symbol><symbol id="sprite-callout-opinion" viewBox="0 0 24 24"><title>callout-opinion</title><path fill="none" d="M0 0h24v24H0z"/><path d="M1 22a8 8 0 1116 0h-2a6 6 0 10-12 0H1zm8-9c-3.315 0-6-2.685-6-6s2.685-6 6-6 6 2.685 6 6-2.685 6-6 6zm0-2c2.21 0 4-1.79 4-4s-1.79-4-4-4-4 1.79-4 4 1.79 4 4 4zM21.548.784A13.942 13.942 0 0123 7c0 2.233-.523 4.344-1.452 6.216l-1.645-1.196A11.955 11.955 0 0021 7a11.96 11.96 0 00-1.097-5.02L21.548.784zm-3.302 2.4A9.97 9.97 0 0119 7a9.97 9.97 0 01-.754 3.816l-1.677-1.22A7.99 7.99 0 0017 7a7.99 7.99 0 00-.43-2.596l1.676-1.22z"/></symbol><symbol id="sprite-callout-quote" viewBox="0 0 489.3 489.3"><title>callout-quote</title><path d="M265 369.25c6.8 0 12.3-5.5 12.3-12.3s-5.5-12.3-12.3-12.3H38.4c-7.7 0-13.9-6.2-13.9-13.9V77.35c0-7.7 6.2-13.9 13.9-13.9H451c7.7 0 13.9 6.2 13.9 13.9v253.6c0 7.7-6.2 13.9-13.9 13.9h-30.2c-6.8 0-12.3 5.5-12.3 12.3v60.9l-69.5-69.5c-4.8-4.8-12.5-4.8-17.3 0s-4.8 12.5 0 17.3l78.9 78.9c3.6 3.6 8.5 5.6 13.4 5.6 2.4 0 4.9-.5 7.3-1.4 7.1-2.9 11.7-9.8 11.7-17.5v-61.9h17.9c21.2 0 38.4-17.2 38.4-38.4V77.35c0-21.2-17.2-38.4-38.4-38.4H38.4C17.2 38.95 0 56.15 0 77.35v253.6c0 21.2 17.2 38.4 38.4 38.4H265v-.1z"/><path d="M88.1 152.85h313.2c6.8 0 12.3-5.5 12.3-12.3s-5.5-12.3-12.3-12.3H88.1c-6.8 0-12.3 5.5-12.3 12.3s5.5 12.3 12.3 12.3zm0 65.9h313.2c6.8 0 12.3-5.5 12.3-12.3s-5.5-12.3-12.3-12.3H88.1c-6.8 0-12.3 5.5-12.3 12.3s5.5 12.3 12.3 12.3zm156.6 65.9h156.6c6.8 0 12.3-5.5 12.3-12.3s-5.5-12.3-12.3-12.3H244.7c-6.8 0-12.3 5.5-12.3 12.3.1 6.8 5.5 12.3 12.3 12.3z"/></symbol><symbol id="sprite-callout-tip" viewBox="0 0 496.304 496.303"><title>callout-tip</title><path d="M248.146 0C111.314 0 0 111.321 0 248.152c0 136.829 111.314 248.151 248.146 248.151 136.835 0 248.158-111.322 248.158-248.151C496.304 111.321 384.98 0 248.146 0zm0 472.093c-123.473 0-223.935-100.459-223.935-223.941 0-123.479 100.462-223.941 223.935-223.941 123.488 0 223.947 100.462 223.947 223.941 0 123.482-100.459 223.941-223.947 223.941zm71.39-88.673v32.852a2.492 2.492 0 01-2.482 2.494H196.45a2.486 2.486 0 01-2.482-2.494V383.42a2.483 2.483 0 012.482-2.482h34.744V205.831h-35.101a2.466 2.466 0 01-2.468-2.474v-33.6c0-1.38 1.1-2.479 2.468-2.479h82.293a2.477 2.477 0 012.482 2.479v211.181h36.186a2.489 2.489 0 012.482 2.482zM209.93 105.927c0-20.895 16.929-37.829 37.829-37.829 20.886 0 37.826 16.935 37.826 37.829s-16.94 37.829-37.826 37.829c-20.906 0-37.829-16.934-37.829-37.829z"/></symbol><symbol id="sprite-callout-warning" viewBox="0 0 192.146 192.146"><title>callout-warning</title><path d="M108.186 144.372c0 7.054-4.729 12.32-12.037 12.32h-.254c-7.054 0-11.92-5.266-11.92-12.32 0-7.298 5.012-12.31 12.174-12.31s11.91 4.992 12.037 12.31zM88.44 125.301h15.447l2.951-61.298H85.46l2.98 61.298zm101.932 51.733c-2.237 3.664-6.214 5.921-10.493 5.921H12.282c-4.426 0-8.51-2.384-10.698-6.233a12.34 12.34 0 01.147-12.349l84.111-149.22c2.208-3.722 6.204-5.96 10.522-5.96h.332c4.445.107 8.441 2.618 10.513 6.546l83.515 149.229c1.993 3.8 1.905 8.363-.352 12.066zm-10.493-6.4L96.354 21.454l-84.062 149.18h167.587z"/></symbol></svg>